# xmcd
#
# Track frame offsets: 
#        150
#        31373
#        46554
#        74670
#        85716
#        102236
#        133623
#        156161
#        183438
#        209291
#        234662
#        259208
#        283170
#        303047
#        330241
#
# Disc length: 4596 seconds
#
# Revision: 1
# Processed by: cddbd v1.5.2PL0 Copyright (c) Steve Scherf et al.
# Submitted via: ExactAudioCopy v1.0b3
#
DISCID=ca11f20f
DTITLE=Various Artist - Time Blues  Vol.22
DYEAR=2004
DGENRE=Blues
TTITLE0=JP Stingray - The Day You Brought Me The Blues
TTITLE1=Blue Jeans - Come Back Home
TTITLE2=Bonnie Lee - Since I Fell For You
TTITLE3=Kim Wilson - Teach Me
TTITLE4=Nighthawk - Cajun Dancer
TTITLE5=The Stevie Zee Band - Wail
TTITLE6=Tim Gonzales - Summertime
TTITLE7=Eddie Taylor - My Heart Is Bleeding
TTITLE8=Axel Zwingenberger and The Friends - Closed Own
TTITLE9=The Rocky Athas - That Magic
TTITLE10=Eddie Burns - Jail Time
TTITLE11=The Joe Moss Band - Jealous
TTITLE12=Janine Wilson - I Smell Troble
TTITLE13=B.B. and The Blues Shack - Good Night's Sleep
TTITLE14=Lisa Otey - Yonder Come The Blues
EXTD=
EXTT0=
EXTT1=
EXTT2=
EXTT3=
EXTT4=
EXTT5=
EXTT6=
EXTT7=
EXTT8=
EXTT9=
EXTT10=
EXTT11=
EXTT12=
EXTT13=
EXTT14=
PLAYORDER=
